<svg width="0" height="0" class="hidden">
  <symbol clip-rule="evenodd" fill-rule="evenodd" stroke-linejoin="round" stroke-miterlimit="2" xmlns="http://www.w3.org/2000/svg" viewBox="0 0 24 24" id="minus">
    <path d="m21 4c0-.478-.379-1-1-1h-16c-.62 0-1 .519-1 1v16c0 .621.52 1 1 1h16c.478 0 1-.379 1-1zm-13.25 7.252h8.5c.414 0 .75.336.75.75s-.336.75-.75.75h-8.5c-.414 0-.75-.336-.75-.75s.336-.75.75-.75z" fill-rule="nonzero"></path>
  </symbol>
  <symbol xmlns="http://www.w3.org/2000/svg" viewBox="0 0 24 24" id="photo">
    <path d="M18 5l-2-3h-8l-2 3h-6v17h24v-17h-6zm4 7h-4.079c.581 3.754-2.312 7-5.921 7-3.612 0-6.501-3.248-5.921-7h-4.079v-5h5.07l2-3h5.859l2 3h5.071v5zm-10-3c-2.243 0-4 1.73-4 3.939 0 2.239 1.794 4.061 4 4.061s4-1.822 4-4.061c0-2.209-1.757-3.939-4-3.939zm-.436 3.555c-.632.503-1.461.5-1.852-.006-.39-.506-.194-1.324.438-1.827.632-.502 1.461-.499 1.851.007.391.505.195 1.323-.437 1.826z"></path>
  </symbol>
  <symbol clip-rule="evenodd" fill-rule="evenodd" stroke-linejoin="round" stroke-miterlimit="2" xmlns="http://www.w3.org/2000/svg" viewBox="0 0 24 24" id="plus">
    <path d="m21 3.998c0-.478-.379-1-1-1h-16c-.62 0-1 .519-1 1v16c0 .621.52 1 1 1h16c.478 0 1-.379 1-1zm-9.75 7.252v-3.5c0-.414.336-.75.75-.75s.75.336.75.75v3.5h3.5c.414 0 .75.336.75.75s-.336.75-.75.75h-3.5v3.5c0 .414-.336.75-.75.75s-.75-.336-.75-.75v-3.5h-3.5c-.414 0-.75-.336-.75-.75s.336-.75.75-.75z" fill-rule="nonzero"></path>
  </symbol>
  <symbol xmlns="http://www.w3.org/2000/svg" viewBox="0 0 24 24" id="share">
    <path d="M21 13v10h-21v-19h12v2h-10v15h17v-8h2zm3-12h-10.988l4.035 4-6.977 7.07 2.828 2.828 6.977-7.07 4.125 4.172v-11z"></path>
  </symbol>
  <symbol xmlns="http://www.w3.org/2000/svg" viewBox="0 0 24 24" id="info">
    <path d="M12 2c5.514 0 10 4.486 10 10s-4.486 10-10 10-10-4.486-10-10 4.486-10 10-10zm0-2c-6.627 0-12 5.373-12 12s5.373 12 12 12 12-5.373 12-12-5.373-12-12-12zm-2.033 16.01c.564-1.789 1.632-3.932 1.821-4.474.273-.787-.211-1.136-1.74.209l-.34-.64c1.744-1.897 5.335-2.326 4.113.613-.763 1.835-1.309 3.074-1.621 4.03-.455 1.393.694.828 1.819-.211.153.25.203.331.356.619-2.498 2.378-5.271 2.588-4.408-.146zm4.742-8.169c-.532.453-1.32.443-1.761-.022-.441-.465-.367-1.208.164-1.661.532-.453 1.32-.442 1.761.022.439.466.367 1.209-.164 1.661z"></path>
  </symbol>
  <symbol xmlns="http://www.w3.org/2000/svg" viewBox="0 0 24 24" id="search">
    <path d="M23.822 20.88l-6.353-6.354c.93-1.465 1.467-3.2 1.467-5.059.001-5.219-4.247-9.467-9.468-9.467s-9.468 4.248-9.468 9.468c0 5.221 4.247 9.469 9.468 9.469 1.768 0 3.421-.487 4.839-1.333l6.396 6.396 3.119-3.12zm-20.294-11.412c0-3.273 2.665-5.938 5.939-5.938 3.275 0 5.94 2.664 5.94 5.938 0 3.275-2.665 5.939-5.94 5.939-3.274 0-5.939-2.664-5.939-5.939z"></path>
  </symbol>
  <symbol xmlns="http://www.w3.org/2000/svg" viewBox="0 0 24 24" id="map">
    <path d="M12 0c-3.148 0-6 2.553-6 5.702 0 4.682 4.783 5.177 6 12.298 1.217-7.121 6-7.616 6-12.298 0-3.149-2.851-5.702-6-5.702zm0 8c-1.105 0-2-.895-2-2s.895-2 2-2 2 .895 2 2-.895 2-2 2zm12 16l-6.707-2.427-5.293 2.427-5.581-2.427-6.419 2.427 4-9 3.96-1.584c.38.516.741 1.08 1.061 1.729l-3.523 1.41-1.725 3.88 2.672-1.01 1.506-2.687-.635 3.044 4.189 1.789.495-2.021.465 2.024 4.15-1.89-.618-3.033 1.572 2.896 2.732.989-1.739-3.978-3.581-1.415c.319-.65.681-1.215 1.062-1.731l4.021 1.588 3.936 9z"></path>
  </symbol>
  <symbol xmlns="http://www.w3.org/2000/svg" viewBox="0 0 24 24" id="video">
    <path d="M3 22v-20l18 10-18 10z"></path>
  </symbol>
</svg>