<?xml version="1.0" standalone="no"?>
<!DOCTYPE svg PUBLIC "-//W3C//DTD SVG 20010904//EN"
 "http://www.w3.org/TR/2001/REC-SVG-20010904/DTD/svg10.dtd">
<svg version="1.0" xmlns="http://www.w3.org/2000/svg"
 width="460.000000pt" height="460.000000pt" viewBox="0 0 460.000000 460.000000"
 preserveAspectRatio="xMidYMid meet">
<metadata>
Created by potrace 1.14, written by Peter Selinger 2001-2017
</metadata>
<g transform="translate(0.000000,460.000000) scale(0.100000,-0.100000)"
fill="#000000" stroke="none">
<path d="M1550 4415 c0 -8 40 -178 89 -377 50 -200 117 -475 151 -613 33 -137
67 -276 76 -308 18 -69 15 -81 -27 -102 l-32 -17 -306 306 -306 306 -113 0
-113 0 7 -112 6 -113 304 -305 304 -305 -25 -37 -24 -36 -88 23 c-48 12 -275
69 -503 125 -228 55 -497 122 -598 147 -101 24 -185 43 -188 40 -2 -2 -4 -339
-4 -748 0 -609 2 -745 13 -747 7 -1 213 47 458 107 767 190 896 221 907 221 5
0 20 -16 31 -36 l22 -36 -120 -119 c-66 -66 -122 -119 -125 -119 -3 0 -29 34
-57 75 -29 41 -56 75 -60 75 -9 0 -89 -87 -89 -98 0 -4 36 -43 80 -87 44 -44
80 -82 80 -86 0 -7 -82 -98 -183 -204 l-57 -60 -25 30 c-30 36 -38 28 -56 -51
-28 -124 61 -213 185 -185 79 18 87 26 51 56 l-30 25 80 76 c44 41 104 96 133
121 l53 46 82 -81 c45 -45 87 -82 93 -82 10 0 94 81 94 91 0 2 -34 29 -75 58
-41 30 -75 56 -75 58 0 2 54 58 119 124 l120 119 35 -21 c20 -12 36 -26 36
-31 0 -6 -27 -119 -60 -252 -199 -808 -270 -1100 -270 -1112 0 -11 124 -14
748 -16 411 -2 749 -2 751 0 4 2 -73 329 -105 447 -7 28 -25 97 -38 155 -14
58 -61 251 -106 429 -44 179 -80 333 -80 342 0 10 21 30 50 48 27 17 68 47 90
67 l41 38 125 -126 125 -125 -55 -38 -55 -38 -117 117 c-64 64 -119 114 -122
111 -3 -3 47 -59 111 -123 l118 -118 -76 -52 c-41 -29 -75 -56 -75 -60 0 -10
85 -92 96 -92 5 0 46 37 91 82 l82 81 43 -38 c129 -116 218 -201 218 -207 0
-5 -14 -17 -32 -28 l-32 -19 36 -15 c67 -28 113 -30 160 -7 54 26 78 65 78
126 0 51 -18 125 -31 125 -4 0 -17 -12 -28 -27 l-21 -28 -57 60 c-144 151
-183 194 -183 202 0 5 36 44 80 88 44 44 80 83 80 86 0 13 -90 100 -98 95 -4
-3 -30 -36 -58 -75 -27 -39 -51 -71 -54 -71 -3 0 -59 54 -124 119 l-119 119
22 36 c13 20 27 36 31 36 8 0 124 -28 1003 -244 191 -47 354 -86 362 -86 13 0
15 100 15 750 0 413 -3 750 -6 750 -7 0 -468 -113 -1001 -244 -205 -51 -377
-90 -381 -87 -5 3 -17 21 -26 39 l-17 33 306 305 305 305 0 110 0 109 -108 0
-109 0 -305 -305 c-168 -168 -310 -305 -314 -305 -5 0 -22 11 -39 24 l-29 24
23 98 c13 55 88 361 167 681 79 319 144 586 144 592 0 8 -213 11 -750 11 -656
0 -750 -2 -750 -15z m1480 -10 c0 -8 -24 -115 -54 -237 -79 -322 -266 -1080
-272 -1100 -4 -15 -8 -15 -35 -1 -20 10 -28 20 -25 31 3 10 37 145 75 302 38
157 106 433 150 613 45 180 81 330 81 333 0 2 -292 4 -650 4 -513 0 -650 -3
-650 -12 0 -7 36 -159 81 -338 44 -179 111 -451 149 -605 38 -154 71 -287 75
-296 4 -12 -3 -20 -25 -29 -17 -7 -32 -11 -34 -9 -3 4 -70 273 -246 994 -45
182 -83 338 -86 348 -5 16 34 17 730 17 644 0 736 -2 736 -15z m-100 -75 c0
-11 -77 -328 -222 -913 -77 -313 -82 -328 -102 -323 -168 48 -183 50 -316 50
-120 0 -145 -3 -224 -28 -48 -15 -91 -25 -94 -22 -5 6 -34 120 -157 621 -37
149 -84 341 -106 429 -21 87 -39 167 -39 177 0 18 21 19 630 19 421 0 630 -3
630 -10z m-1436 -1040 l300 -299 -50 -45 -49 -45 -250 250 c-138 137 -255 249
-260 249 -5 0 104 -114 244 -254 l254 -254 -44 -51 -44 -51 -302 303 -303 302
0 104 0 104 103 -7 102 -7 299 -299z m2116 226 c0 -47 -4 -95 -9 -109 -5 -13
-143 -157 -307 -321 -240 -240 -299 -294 -307 -281 -5 9 -23 32 -40 51 l-30
35 248 249 c137 137 246 252 242 256 -4 4 -118 -104 -253 -240 -136 -135 -250
-246 -253 -246 -3 1 -26 19 -51 40 l-45 40 299 299 c336 336 290 304 449 309
l57 2 0 -84z m-1112 -407 c377 -91 643 -429 643 -816 0 -172 -32 -293 -116
-436 -83 -140 -231 -273 -385 -344 -152 -70 -382 -88 -550 -44 -301 79 -530
308 -612 611 -33 125 -31 310 6 433 92 306 316 523 616 597 109 27 285 26 398
-1z m-1383 -315 c220 -54 404 -101 408 -104 14 -12 -15 -61 -32 -56 -9 3 -74
19 -146 36 -71 18 -348 85 -614 151 -266 66 -486 117 -489 114 -3 -3 -6 -295
-6 -650 -1 -497 2 -645 11 -645 11 0 693 166 1086 264 168 42 169 42 183 22 8
-11 14 -25 14 -31 0 -10 -149 -48 -915 -235 -226 -56 -418 -103 -427 -106 -17
-5 -18 34 -18 729 0 403 2 736 5 738 2 3 125 -25 272 -62 147 -37 448 -111
668 -165z m3315 -510 c0 -696 -1 -735 -17 -730 -20 6 -441 109 -883 217 -330
80 -454 111 -459 115 -2 2 -1 15 3 29 4 16 13 25 27 25 11 0 185 -41 387 -91
691 -170 851 -209 861 -209 8 0 11 196 11 650 l0 650 -22 -5 c-13 -2 -178 -43
-368 -89 -190 -47 -457 -112 -595 -146 -137 -33 -258 -63 -267 -66 -12 -3 -22
4 -32 25 -15 27 -14 30 2 35 9 3 112 28 227 56 702 171 948 232 1010 249 39
11 80 20 93 20 l22 1 0 -736z m-3719 527 c244 -60 522 -128 617 -152 145 -35
173 -44 168 -58 -48 -146 -49 -155 -50 -311 0 -139 3 -164 26 -240 15 -47 22
-87 17 -90 -10 -7 -17 -9 -554 -140 -547 -135 -653 -160 -670 -160 -13 0 -15
72 -15 630 0 359 4 630 9 630 5 0 208 -49 452 -109z m3639 -521 c0 -599 -1
-630 -18 -630 -10 0 -126 27 -258 60 -568 141 -936 230 -949 230 -24 0 -24 14
3 110 22 82 26 115 25 235 0 123 -3 151 -27 229 -15 49 -25 90 -24 92 3 3 549
138 873 216 94 23 208 51 255 64 47 12 93 23 103 23 16 1 17 -35 17 -629z
m-2708 -558 l36 -48 -102 -104 c-153 -158 -137 -150 -181 -89 l-37 52 118 118
c65 66 121 119 124 119 3 -1 21 -22 42 -48z m1481 -70 l117 -118 -36 -52 c-20
-29 -40 -52 -43 -52 -4 0 -60 54 -125 119 -84 84 -116 123 -110 132 15 26 67
89 73 89 4 0 59 -53 124 -118z m-1863 -10 c14 -20 39 -55 55 -78 17 -22 48
-65 70 -95 42 -58 70 -82 220 -188 49 -35 92 -65 94 -67 1 -1 -14 -21 -35 -44
l-38 -41 -237 237 -238 237 37 38 c20 21 39 38 42 39 3 0 16 -17 30 -38z
m2170 -26 c11 -17 -12 -42 -221 -252 l-234 -234 -37 37 c-21 20 -38 40 -38 43
0 3 23 21 50 40 28 19 60 43 73 52 12 9 51 39 86 65 48 36 88 81 160 179 l95
132 27 -22 c15 -11 32 -30 39 -40z m-1640 -36 c0 -6 -134 -145 -197 -203 l-41
-38 -52 37 -52 37 123 123 122 123 48 -37 c27 -20 48 -39 49 -42z m146 -83
l22 -12 -43 -170 c-34 -138 -180 -732 -252 -1023 -8 -35 -12 -66 -8 -70 8 -9
1281 -9 1289 -1 4 4 -32 161 -78 350 -184 748 -216 875 -221 895 -5 15 0 23
20 32 34 16 45 15 45 -2 0 -15 52 -232 220 -912 55 -223 100 -411 100 -419 0
-13 -98 -15 -729 -15 -402 0 -732 3 -734 8 -2 4 38 176 89 382 51 206 126 509
166 673 40 163 77 297 83 297 5 -1 20 -6 31 -13z m96 -36 c146 -50 354 -53
508 -8 47 14 86 25 87 24 1 -2 40 -157 234 -944 38 -155 69 -287 69 -293 0 -7
-197 -10 -630 -10 -603 0 -630 1 -630 18 0 10 56 243 124 518 68 274 134 540
146 589 24 102 30 125 34 125 2 0 28 -9 58 -19z m-602 -167 c0 -6 -9 -19 -19
-28 -19 -17 -20 -15 -55 59 -20 42 -36 79 -36 82 0 4 25 -18 55 -48 30 -30 55
-59 55 -65z m1815 38 c-19 -40 -38 -72 -42 -72 -3 0 -15 8 -25 17 -18 16 -17
19 39 75 31 31 58 56 60 54 2 -1 -13 -35 -32 -74z m-1903 -11 c34 -77 35 -81
18 -96 -17 -16 -20 -13 -54 59 -31 65 -34 79 -24 96 7 11 15 20 18 20 3 0 22
-36 42 -79z m1982 53 c3 -8 -11 -48 -32 -89 -34 -67 -39 -72 -55 -60 -17 12
-16 17 18 93 36 78 55 93 69 56z m-2005 -190 c-19 -24 -27 -17 -65 57 -34 68
-35 72 -18 91 18 19 19 17 57 -57 30 -61 36 -80 26 -91z m2042 97 c-10 -20
-27 -55 -38 -78 -19 -41 -21 -42 -37 -24 -15 17 -14 23 19 96 35 75 36 77 55
60 19 -17 19 -18 1 -54z m-2115 -58 c33 -73 34 -78 17 -91 -16 -11 -21 -6 -50
50 -18 35 -32 70 -33 79 0 13 18 39 27 39 2 0 19 -35 39 -77z m2162 57 c11
-17 8 -30 -20 -91 -31 -66 -34 -69 -53 -56 -19 14 -18 16 15 91 19 41 37 75
40 76 3 0 11 -9 18 -20z m-2189 -186 c-20 -24 -28 -16 -60 52 -28 62 -29 68
-13 85 16 17 18 15 50 -53 27 -54 32 -74 23 -84z m2221 55 c-40 -79 -37 -76
-56 -57 -15 15 -14 22 17 88 32 70 33 71 52 52 18 -19 18 -20 -13 -83z m-2283
-106 c34 -29 58 -55 52 -59 -6 -3 -36 -8 -68 -11 -106 -10 -158 42 -148 148 3
32 8 62 11 68 4 6 25 -12 49 -41 23 -29 70 -76 104 -105z m19 10 c-3 -3 -29
17 -57 46 l-52 51 24 26 24 26 34 -72 c18 -39 31 -74 27 -77z m2344 99 c0 -18
-93 -108 -97 -95 -2 5 10 40 27 78 30 66 31 67 50 50 11 -10 20 -25 20 -33z
m85 -47 c0 -100 -48 -143 -150 -132 -30 3 -59 8 -65 12 -6 3 13 24 40 46 28
22 74 69 103 104 61 74 71 70 72 -30z"/>
<path d="M2140 3046 c-141 -30 -275 -103 -380 -206 -113 -112 -182 -235 -216
-385 -92 -415 173 -830 588 -921 343 -76 703 96 858 411 53 109 71 179 77 315
4 95 2 130 -16 203 -64 268 -249 469 -516 559 -76 26 -108 31 -210 34 -76 2
-144 -2 -185 -10z m185 -162 c15 -32 16 -60 10 -258 -6 -192 -5 -230 10 -291
24 -95 79 -215 100 -215 31 0 73 29 79 56 9 34 -20 77 -54 82 -20 3 -22 8 -16
45 3 23 10 85 16 137 23 197 58 274 168 359 l42 33 0 -464 0 -463 -105 1 -104
1 -17 -49 c-18 -54 -63 -118 -120 -171 l-38 -34 -56 56 c-53 53 -91 116 -106
176 l-7 27 -98 -3 c-54 -2 -101 0 -105 4 -3 3 -6 201 -5 439 1 238 1 441 1
451 0 25 11 21 60 -20 84 -72 129 -170 144 -318 4 -33 9 -76 11 -95 3 -19 7
-52 10 -72 4 -31 2 -38 -12 -38 -9 0 -27 -10 -40 -22 -37 -34 -29 -79 18 -103
15 -8 34 -15 42 -15 19 0 50 61 83 165 31 98 35 158 24 440 -4 112 -3 135 13
163 10 17 21 32 26 32 5 0 16 -16 26 -36z"/>
<path d="M1972 2463 l3 -238 23 -3 c13 -2 22 2 22 10 0 7 14 29 30 47 34 36
34 43 9 226 -9 70 -61 195 -80 195 -6 0 -8 -91 -7 -237z"/>
<path d="M2585 2655 c-34 -58 -42 -88 -55 -219 -6 -60 -12 -112 -13 -115 -4
-11 77 -101 90 -101 10 0 13 51 13 240 0 132 -2 240 -5 240 -2 0 -16 -20 -30
-45z"/>
<path d="M2270 2200 c-12 -33 -27 -63 -31 -66 -18 -11 -8 -29 26 -52 l35 -22
33 22 c17 13 33 24 35 24 2 1 -8 24 -22 50 -14 27 -28 61 -32 77 -3 15 -10 27
-14 27 -4 0 -18 -27 -30 -60z"/>
<path d="M2563 2126 c-20 -28 -42 -46 -64 -52 -33 -10 -34 -11 -30 -54 1 -25
5 -48 8 -52 2 -5 35 -8 74 -8 l69 0 0 99 c0 118 -12 132 -57 67z"/>
<path d="M1973 2063 l2 -98 71 -3 71 -3 7 32 c11 57 8 79 -13 79 -24 0 -78 44
-86 70 -4 13 -15 20 -30 20 -24 0 -24 -1 -22 -97z"/>
<path d="M2195 2038 c-2 -7 -6 -26 -7 -43 -3 -29 -1 -30 41 -33 41 -3 43 -2
37 20 -3 13 -6 26 -6 30 0 4 -14 15 -30 23 -24 12 -31 13 -35 3z"/>
<path d="M2355 2025 c-14 -13 -25 -33 -25 -45 0 -17 6 -20 40 -20 38 0 40 2
40 29 0 36 -9 61 -22 61 -5 0 -20 -11 -33 -25z"/>
<path d="M2190 1897 c0 -19 40 -94 60 -112 20 -18 20 -17 20 48 0 37 -3 67 -7
68 -44 6 -73 5 -73 -4z"/>
<path d="M2330 1840 c0 -38 2 -70 5 -70 12 0 65 96 65 117 0 20 -5 23 -35 23
l-35 0 0 -70z"/>
</g>
</svg>
