<svg width="0" height="0" class="hidden"><symbol clip-rule="evenodd" fill-rule="evenodd" stroke-linejoin="round" stroke-miterlimit="2" xmlns="http://www.w3.org/2000/svg" viewBox="0 0 24 24" id="minus"><path d="M21 4c0-.478-.379-1-1-1H4c-.62 0-1 .519-1 1v16c0 .621.52 1 1 1h16c.478 0 1-.379 1-1zM7.75 11.252h8.5a.75.75 0 010 1.5h-8.5a.75.75 0 010-1.5z" fill-rule="nonzero"/></symbol><symbol xmlns="http://www.w3.org/2000/svg" viewBox="0 0 24 24" id="photo"><path d="M18 5l-2-3H8L6 5H0v17h24V5h-6zm4 7h-4.079c.581 3.754-2.312 7-5.921 7-3.612 0-6.501-3.248-5.921-7H2V7h5.07l2-3h5.859l2 3H22v5zM12 9c-2.243 0-4 1.73-4 3.939C8 15.178 9.794 17 12 17s4-1.822 4-4.061C16 10.73 14.243 9 12 9zm-.436 3.555c-.632.503-1.461.5-1.852-.006-.39-.506-.194-1.324.438-1.827.632-.502 1.461-.499 1.851.007.391.505.195 1.323-.437 1.826z"/></symbol><symbol clip-rule="evenodd" fill-rule="evenodd" stroke-linejoin="round" stroke-miterlimit="2" xmlns="http://www.w3.org/2000/svg" viewBox="0 0 24 24" id="plus"><path d="M21 3.998c0-.478-.379-1-1-1H4c-.62 0-1 .519-1 1v16c0 .621.52 1 1 1h16c.478 0 1-.379 1-1zm-9.75 7.252v-3.5a.75.75 0 011.5 0v3.5h3.5a.75.75 0 010 1.5h-3.5v3.5a.75.75 0 01-1.5 0v-3.5h-3.5a.75.75 0 010-1.5z" fill-rule="nonzero"/></symbol><symbol xmlns="http://www.w3.org/2000/svg" viewBox="0 0 24 24" id="share"><path d="M21 13v10H0V4h12v2H2v15h17v-8h2zm3-12H13.012l4.035 4-6.977 7.07 2.828 2.828 6.977-7.07L24 12V1z"/></symbol><symbol xmlns="http://www.w3.org/2000/svg" viewBox="0 0 24 24" id="info"><path d="M12 2c5.514 0 10 4.486 10 10s-4.486 10-10 10S2 17.514 2 12 6.486 2 12 2zm0-2C5.373 0 0 5.373 0 12s5.373 12 12 12 12-5.373 12-12S18.627 0 12 0zM9.967 16.01c.564-1.789 1.632-3.932 1.821-4.474.273-.787-.211-1.136-1.74.209l-.34-.64c1.744-1.897 5.335-2.326 4.113.613-.763 1.835-1.309 3.074-1.621 4.03-.455 1.393.694.828 1.819-.211.153.25.203.331.356.619-2.498 2.378-5.271 2.588-4.408-.146zm4.742-8.169c-.532.453-1.32.443-1.761-.022-.441-.465-.367-1.208.164-1.661.532-.453 1.32-.442 1.761.022.439.466.367 1.209-.164 1.661z"/></symbol><symbol xmlns="http://www.w3.org/2000/svg" viewBox="0 0 24 24" id="search"><path d="M23.822 20.88l-6.353-6.354a9.407 9.407 0 001.467-5.059C18.937 4.248 14.689 0 9.468 0S0 4.248 0 9.468c0 5.221 4.247 9.469 9.468 9.469a9.41 9.41 0 004.839-1.333L20.703 24l3.119-3.12zM3.528 9.468A5.947 5.947 0 019.467 3.53a5.946 5.946 0 015.94 5.938 5.946 5.946 0 01-5.94 5.939 5.946 5.946 0 01-5.939-5.939z"/></symbol><symbol xmlns="http://www.w3.org/2000/svg" viewBox="0 0 24 24" id="map"><path d="M12 0C8.852 0 6 2.553 6 5.702c0 4.682 4.783 5.177 6 12.298 1.217-7.121 6-7.616 6-12.298C18 2.553 15.149 0 12 0zm0 8a2 2 0 11-.001-3.999A2 2 0 0112 8zm12 16l-6.707-2.427L12 24l-5.581-2.427L0 24l4-9 3.96-1.584c.38.516.741 1.08 1.061 1.729l-3.523 1.41-1.725 3.88 2.672-1.01 1.506-2.687-.635 3.044 4.189 1.789L12 19.55l.465 2.024 4.15-1.89-.618-3.033 1.572 2.896 2.732.989-1.739-3.978-3.581-1.415c.319-.65.681-1.215 1.062-1.731L20.064 15 24 24z"/></symbol><symbol xmlns="http://www.w3.org/2000/svg" viewBox="0 0 24 24" id="video"><path d="M3 22V2l18 10L3 22z"/></symbol></svg>